<svg width="36" height="41" viewBox="0 0 36 41" fill="none" xmlns="http://www.w3.org/2000/svg">
<g filter="url(#filter0_d_8_78)">
<path d="M14.0869 12.9248C14.0869 13.9453 13.5547 15.6152 12.2949 15.6152C11.0352 15.6152 10.5029 13.9453 10.5029 12.9248C10.5029 11.9043 11.0352 10.2344 12.2949 10.2344C13.5547 10.2344 14.0869 11.9043 14.0869 12.9248V12.9248ZM28.4375 10.459C28.4375 12.0166 28.2813 13.667 27.583 15.0977C25.7324 18.8379 20.6445 18.75 17.002 18.75C13.3008 18.75 7.91016 18.8818 5.98633 15.0977C5.27344 13.6816 5 12.0166 5 10.459C5 8.41309 5.67871 6.47949 7.02637 4.91211C6.77246 4.14063 6.65039 3.33008 6.65039 2.5293C6.65039 1.47949 6.88965 0.952148 7.36328 0C9.5752 0 10.9912 0.439453 12.6758 1.75781C14.0918 1.4209 15.5469 1.26953 17.0068 1.26953C18.3252 1.26953 19.6533 1.41113 20.9326 1.71875C22.5928 0.415039 24.0088 0 26.1963 0C26.6748 0.952148 26.9092 1.47949 26.9092 2.5293C26.9092 3.33008 26.7822 4.12598 26.5332 4.88281C27.876 6.46484 28.4375 8.41309 28.4375 10.459V10.459ZM25.2979 12.9248C25.2979 10.7813 23.9941 8.8916 21.709 8.8916C20.7861 8.8916 19.9023 9.05762 18.9746 9.18457C18.2471 9.29688 17.5195 9.34082 16.7725 9.34082C16.0303 9.34082 15.3027 9.29688 14.5703 9.18457C13.6572 9.05762 12.7637 8.8916 11.8359 8.8916C9.55078 8.8916 8.24707 10.7813 8.24707 12.9248C8.24707 17.2119 12.1729 17.8711 15.5908 17.8711H17.9443C21.377 17.8711 25.2979 17.2168 25.2979 12.9248V12.9248ZM21.2646 10.2344C20.0049 10.2344 19.4727 11.9043 19.4727 12.9248C19.4727 13.9453 20.0049 15.6152 21.2646 15.6152C22.5244 15.6152 23.0566 13.9453 23.0566 12.9248C23.0566 11.9043 22.5244 10.2344 21.2646 10.2344Z" fill="#B2FF9E"/>
</g>
<defs>
<filter id="filter0_d_8_78" x="0" y="0" width="35.4375" height="40.7505" filterUnits="userSpaceOnUse" color-interpolation-filters="sRGB">
<feFlood flood-opacity="0" result="BackgroundImageFix"/>
<feColorMatrix in="SourceAlpha" type="matrix" values="0 0 0 0 0 0 0 0 0 0 0 0 0 0 0 0 0 0 127 0" result="hardAlpha"/>
<feOffset dx="1" dy="16"/>
<feGaussianBlur stdDeviation="3"/>
<feComposite in2="hardAlpha" operator="out"/>
<feColorMatrix type="matrix" values="0 0 0 0 0.637812 0 0 0 0 0.954769 0 0 0 0 0.975 0 0 0 0.25 0"/>
<feBlend mode="normal" in2="BackgroundImageFix" result="effect1_dropShadow_8_78"/>
<feBlend mode="normal" in="SourceGraphic" in2="effect1_dropShadow_8_78" result="shape"/>
</filter>
</defs>
</svg>
